<?xml version="1.0" standalone="no"?>
<!DOCTYPE svg PUBLIC "-//W3C//DTD SVG 20010904//EN"
 "http://www.w3.org/TR/2001/REC-SVG-20010904/DTD/svg10.dtd">
<svg version="1.0" xmlns="http://www.w3.org/2000/svg"
 width="277.000000pt" height="277.000000pt" viewBox="0 0 277.000000 277.000000"
 preserveAspectRatio="xMidYMid meet">
<metadata>
Created by potrace 1.14, written by Peter Selinger 2001-2017
</metadata>
<g transform="translate(0.000000,277.000000) scale(0.100000,-0.100000)"
fill="#000000" stroke="none">
<path d="M0 2295 c0 -373 3 -475 13 -475 6 0 77 -7 157 -15 80 -8 189 -15 243
-15 94 0 97 1 98 23 1 21 1 21 8 -3 6 -20 13 -24 46 -26 22 -1 46 3 52 8 9 7
13 7 13 -1 0 -7 24 -11 65 -11 l65 0 0 103 c1 106 16 241 19 165 1 -48 10 -70
25 -61 7 4 6 1 -1 -9 -12 -14 -18 -178 -7 -178 3 0 31 18 64 40 l58 39 8 88 8
88 8 -69 c5 -38 10 -71 12 -73 2 -3 77 47 166 109 278 194 298 205 315 178 3
-5 15 -10 26 -10 10 0 19 -7 19 -14 0 -13 353 -328 354 -317 1 2 20 -15 42
-38 29 -29 50 -41 70 -41 16 0 106 -7 199 -15 94 -8 258 -21 365 -30 107 -9
210 -18 228 -22 l32 -5 0 531 0 531 -1385 0 -1385 0 0 -475z m1953 -32 c-13
-2 -35 -2 -50 0 -16 2 -5 4 22 4 28 0 40 -2 28 -4z m100 -10 c-7 -2 -19 -2
-25 0 -7 3 -2 5 12 5 14 0 19 -2 13 -5z m-214 -6 c-2 -1 -13 -9 -24 -17 -19
-14 -19 -14 -6 3 7 9 18 17 24 17 6 0 8 -1 6 -3z m-641 -74 c-10 -2 -26 -2
-35 0 -10 3 -2 5 17 5 19 0 27 -2 18 -5z m-295 -76 c7 4 6 -1 -2 -10 -10 -13
-12 -33 -7 -77 6 -51 5 -60 -9 -60 -14 0 -15 8 -9 58 7 57 7 57 -13 39 -17
-15 -21 -32 -22 -100 -1 -45 -5 -85 -9 -89 -4 -4 -5 22 -4 58 2 36 -1 70 -7
78 -8 9 -2 21 24 46 26 25 35 43 36 69 2 31 3 32 6 8 3 -18 9 -25 16 -20z
m704 37 c-3 -3 -12 -4 -19 -1 -8 3 -5 6 6 6 11 1 17 -2 13 -5z m-897 -277 c0
-2 -10 -12 -22 -23 l-23 -19 19 23 c18 21 26 27 26 19z"/>
<path d="M1387 2186 c-9 -7 -27 -21 -40 -30 -29 -21 -405 -282 -471 -326 -46
-31 -49 -35 -27 -38 14 -2 49 -1 78 3 51 6 54 8 53 33 -4 54 0 72 15 72 11 0
15 -12 15 -50 0 -37 4 -50 14 -50 11 0 14 15 15 61 0 34 2 64 5 67 4 3 6 -25
6 -61 0 -53 3 -67 15 -67 9 0 15 9 15 24 0 32 20 44 27 18 3 -11 10 -19 16
-17 7 2 23 6 37 9 22 4 26 12 28 43 2 21 7 42 12 47 13 13 23 -18 18 -59 -3
-24 0 -35 9 -35 7 0 13 6 13 13 0 7 8 13 19 13 11 0 17 -5 14 -13 -3 -7 0 -13
6 -13 6 0 11 7 11 16 0 9 7 14 18 12 35 -5 42 11 42 93 0 64 3 79 15 79 11 0
15 -13 15 -54 l0 -54 38 14 c20 7 47 10 60 7 19 -5 22 -1 23 28 0 19 4 43 8
53 7 18 8 18 14 -5 4 -13 7 -37 7 -52 0 -17 6 -30 18 -33 9 -3 29 -12 44 -20
21 -11 27 -11 31 -2 4 9 6 8 6 -3 1 -8 21 -36 45 -62 35 -38 50 -47 77 -47 51
-1 105 -15 141 -39 l33 -22 -75 7 -75 6 30 -29 c48 -45 107 -89 151 -111 53
-27 170 -64 200 -64 13 0 21 -4 18 -9 -3 -5 1 -6 9 -3 8 3 30 -8 48 -24 34
-30 112 -62 150 -62 12 0 58 -11 103 -24 44 -14 101 -27 126 -31 25 -4 71 -20
103 -36 l57 -29 0 170 c0 155 -2 170 -17 170 -10 0 -58 5 -108 10 -100 10
-430 38 -572 49 -51 3 -93 3 -93 -2 0 -16 -64 27 -119 79 -31 29 -62 52 -69
49 -7 -3 -10 -1 -7 4 3 5 -63 69 -147 142 l-153 133 -3 -60 c-5 -119 -30 -111
-33 11 -2 109 -13 118 -19 17 -3 -45 -9 -82 -15 -82 -12 0 -23 146 -12 166 10
17 7 17 -16 0z m-227 -309 c0 -31 -3 -38 -17 -35 -18 4 -20 21 -7 77 8 36 24
7 24 -42z m917 -233 c94 -78 99 -84 85 -84 -6 0 -42 25 -79 56 -94 78 -99 84
-85 84 6 0 42 -25 79 -56z m644 -141 c13 -16 12 -17 -3 -4 -17 13 -22 21 -14
21 2 0 10 -8 17 -17z"/>
<path d="M1430 1921 c-14 -4 -32 -20 -40 -37 -8 -17 -27 -36 -42 -42 -33 -12
-38 -42 -7 -42 17 0 19 -3 10 -14 -6 -7 10 -3 36 10 27 13 68 26 93 29 88 12
93 14 87 40 -2 14 0 25 5 25 5 0 6 5 3 10 -10 16 -45 12 -45 -5 0 -8 -7 -15
-15 -15 -8 0 -15 9 -15 20 0 11 -4 20 -9 20 -5 0 -15 2 -23 4 -7 2 -24 1 -38
-3z"/>
<path d="M1585 1876 c-3 -9 -7 -23 -10 -31 -3 -10 2 -15 14 -15 13 0 19 7 19
25 0 30 -16 43 -23 21z"/>
<path d="M1640 1837 c0 -8 7 -17 15 -21 8 -3 15 -2 15 3 0 5 -7 14 -15 21 -12
10 -15 10 -15 -3z"/>
<path d="M1465 1810 c-13 -6 10 -7 60 -3 44 3 82 7 84 9 9 8 -125 2 -144 -6z"/>
<path d="M1120 1800 c-11 -7 5 -10 53 -10 38 0 67 4 67 10 0 13 -100 13 -120
0z"/>
<path d="M1270 1800 c0 -5 5 -10 10 -10 6 0 10 5 10 10 0 6 -4 10 -10 10 -5 0
-10 -4 -10 -10z"/>
<path d="M0 1514 c1 -202 4 -264 13 -261 7 2 15 21 18 43 6 38 6 38 8 6 l1
-33 26 20 c15 12 34 21 43 20 9 0 11 -2 6 -5 -6 -2 -9 -25 -7 -50 3 -35 7 -44
19 -40 8 3 25 6 38 6 21 0 23 3 18 39 -3 21 -1 47 5 57 10 17 11 16 17 -9 4
-15 5 -39 2 -53 -3 -19 -1 -24 12 -22 11 2 19 21 25 58 l10 55 10 -47 c6 -31
15 -48 24 -48 11 0 13 8 9 30 -5 23 -3 30 8 30 11 0 14 -7 9 -25 -7 -29 4 -32
49 -10 32 15 32 15 29 85 -3 58 -1 70 12 70 11 0 16 -14 18 -57 l3 -58 35 49
c53 74 139 154 198 182 39 19 62 40 91 82 22 31 51 69 65 84 l26 27 -50 -2
-49 -2 -3 -60 c-4 -71 -22 -80 -26 -12 -4 56 -22 54 -22 -4 0 -28 -4 -39 -15
-39 -10 0 -15 10 -15 31 0 17 -4 28 -10 24 -5 -3 -10 -15 -10 -27 0 -16 -5
-19 -22 -15 -28 8 -48 -9 -49 -42 l-1 -26 -7 25 -7 24 -17 -24 c-9 -14 -25
-25 -35 -25 -14 0 -17 -11 -20 -72 -2 -56 -6 -73 -17 -73 -11 0 -15 14 -15 57
0 54 -1 55 -18 40 -10 -10 -23 -17 -29 -17 -6 0 -13 -3 -15 -7 -1 -5 -56 -43
-120 -87 -106 -70 -117 -81 -112 -102 5 -18 2 -24 -11 -24 -12 0 -16 6 -12 20
3 11 0 20 -6 20 -8 0 -7 4 1 12 7 7 13 26 13 42 2 31 2 31 6 3 l4 -27 75 51
c41 28 74 55 74 60 0 5 6 9 12 9 7 0 41 19 76 43 55 37 63 47 69 82 5 31 8 35
13 20 4 -11 5 -24 2 -29 -2 -5 1 -7 9 -4 10 3 15 26 17 80 l3 75 -108 7 c-113
7 -291 23 -356 31 l-37 5 0 -266z m363 -221 c-5 -11 -8 -12 -13 -2 -5 7 -6 19
-3 26 5 11 8 12 13 2 5 -7 6 -19 3 -26z"/>
<path d="M1315 1759 c-4 -6 -5 -12 -2 -15 2 -3 7 2 10 11 7 17 1 20 -8 4z"/>
<path d="M1343 1744 c-26 -13 -33 -23 -34 -48 -2 -31 -2 -31 -6 -3 -3 20 -9
27 -21 23 -9 -3 -43 -9 -74 -15 -32 -6 -70 -17 -85 -24 -16 -8 -64 -26 -109
-41 -98 -32 -158 -69 -238 -146 -34 -32 -83 -69 -111 -83 -57 -28 -142 -85
-189 -124 -56 -47 -147 -75 -319 -98 -37 -5 -50 -12 -57 -28 -7 -19 -9 -19 -9
-3 -1 13 -6 16 -18 11 -10 -4 -30 -10 -45 -13 l-28 -4 0 -574 0 -574 1385 0
1385 0 0 509 c0 428 -2 510 -14 520 -12 10 -15 7 -19 -16 -3 -24 -4 -22 -6 9
-1 28 -8 42 -33 62 -26 20 -35 23 -48 13 -13 -10 -13 -10 -3 4 10 13 3 23 -47
67 -32 29 -61 52 -64 52 -2 0 -7 -8 -9 -17 -3 -12 -5 -8 -6 9 -1 30 -17 44
-43 40 -12 -2 -18 3 -18 17 0 23 -18 37 -42 33 -12 -2 -18 3 -18 17 0 12 -7
21 -15 21 -12 0 -14 -8 -9 -40 6 -34 4 -40 -11 -40 -14 0 -17 6 -12 34 6 37
-4 46 -46 46 -12 0 -35 7 -51 15 -15 8 -30 15 -32 15 -2 0 -4 -40 -4 -90 0
-72 -3 -90 -15 -90 -11 0 -15 21 -17 105 -3 106 -17 140 -29 68 l-6 -38 -3 40
c-1 22 -2 45 -1 51 1 7 -8 14 -19 17 -18 5 -20 2 -15 -26 3 -18 2 -45 -3 -62
l-9 -30 -7 37 c-4 20 -4 48 -1 61 6 22 3 25 -32 32 -104 19 -194 90 -260 205
-44 77 -81 110 -125 110 -27 0 -38 -4 -38 -15 0 -8 -7 -15 -15 -15 -8 0 -15 7
-15 15 0 22 -222 21 -267 -1z m346 -80 c-2 -59 1 -79 14 -92 16 -15 17 -14 17
21 0 26 4 37 15 37 11 0 15 -12 15 -52 0 -34 6 -58 18 -72 16 -20 16 -20 0 -7
-17 12 -18 10 -18 -28 0 -30 -4 -41 -15 -41 -12 0 -15 13 -15 58 0 50 -4 62
-27 85 -16 14 -44 33 -63 41 -19 8 -29 15 -22 16 7 0 22 -5 33 -10 18 -10 19
-7 19 55 0 52 3 65 16 65 13 0 15 -13 13 -76z m-136 -61 c-7 -2 -19 -2 -25 0
-7 3 -2 5 12 5 14 0 19 -2 13 -5z m-73 -27 c0 -2 -8 -10 -17 -17 -16 -13 -17
-12 -4 4 13 16 21 21 21 13z m325 -135 c5 -16 4 -21 -4 -17 -7 5 -11 -2 -12
-16 -1 -18 -3 -15 -11 11 -10 36 -3 71 11 55 5 -5 12 -20 16 -33z m44 -78 c-1
-60 -4 -137 -8 -173 -7 -64 -7 -62 -14 55 -13 201 -12 225 8 225 12 0 15 -18
14 -107z m-459 93 c0 -2 -8 -10 -17 -17 -16 -13 -17 -12 -4 4 13 16 21 21 21
13z m661 -166 l-5 -75 -6 75 c-6 79 -3 114 9 89 4 -8 5 -48 2 -89z m-41 13 c0
-41 -4 -53 -15 -53 -11 0 -15 12 -15 49 0 27 3 57 6 66 11 29 24 -4 24 -62z
m-710 33 c0 -2 -8 -10 -17 -17 -16 -13 -17 -12 -4 4 13 16 21 21 21 13z m596
-75 c-3 -4 4 -12 14 -18 15 -10 19 -8 24 10 4 15 9 18 16 11 6 -6 7 -26 1 -54
-8 -38 -17 -31 -12 9 2 7 -2 10 -8 7 -5 -4 -12 -2 -16 4 -14 22 -25 -4 -27
-63 l-1 -62 -7 70 c-3 39 -3 75 2 81 4 6 4 15 0 19 -4 5 -1 5 6 1 7 -4 10 -11
8 -15z m432 -25 c-2 -15 -7 -28 -13 -29 -12 -2 -19 38 -10 60 9 25 27 1 23
-31z m-66 -72 l-6 -49 -7 45 c-4 25 -5 56 -1 69 5 23 6 24 13 5 4 -11 4 -42 1
-70z m-271 -1 c13 -16 12 -17 -3 -4 -17 13 -22 21 -14 21 2 0 10 -8 17 -17z
m-891 -36 c0 -2 -12 -14 -27 -28 l-28 -24 24 28 c23 25 31 32 31 24z m-60 -70
c0 -1 -24 -25 -52 -52 l-53 -50 50 53 c46 48 55 57 55 49z m1510 -42 c0 -2
-10 -9 -22 -15 -22 -11 -22 -10 -4 4 21 17 26 19 26 11z m-315 -25 c10 -11 16
-20 13 -20 -3 0 -13 9 -23 20 -10 11 -16 20 -13 20 3 0 13 -9 23 -20z m215
-34 c0 -2 -8 -10 -17 -17 -16 -13 -17 -12 -4 4 13 16 21 21 21 13z m-1599 -20
c-13 -16 -61 -27 -61 -15 0 5 11 9 24 9 14 0 28 5 31 10 3 6 9 10 12 10 3 0 0
-6 -6 -14z m-788 -13 c-7 -2 -21 -2 -30 0 -10 3 -5 5 12 5 17 0 24 -2 18 -5z
m110 0 c-7 -2 -21 -2 -30 0 -10 3 -4 5 12 5 17 0 24 -2 18 -5z m110 0 c-7 -2
-21 -2 -30 0 -10 3 -4 5 12 5 17 0 24 -2 18 -5z m110 0 c-7 -2 -21 -2 -30 0
-10 3 -4 5 12 5 17 0 24 -2 18 -5z m110 0 c-7 -2 -21 -2 -30 0 -10 3 -4 5 12
5 17 0 24 -2 18 -5z m110 0 c-7 -2 -21 -2 -30 0 -10 3 -4 5 12 5 17 0 24 -2
18 -5z m110 0 c-7 -2 -21 -2 -30 0 -10 3 -4 5 12 5 17 0 24 -2 18 -5z m220 0
c-7 -2 -21 -2 -30 0 -10 3 -4 5 12 5 17 0 24 -2 18 -5z m110 0 c-7 -2 -21 -2
-30 0 -10 3 -4 5 12 5 17 0 24 -2 18 -5z m110 0 c-7 -2 -21 -2 -30 0 -10 3 -4
5 12 5 17 0 24 -2 18 -5z m110 0 c-7 -2 -21 -2 -30 0 -10 3 -4 5 12 5 17 0 24
-2 18 -5z m110 0 c-7 -2 -21 -2 -30 0 -10 3 -4 5 12 5 17 0 24 -2 18 -5z m110
0 c-7 -2 -21 -2 -30 0 -10 3 -4 5 12 5 17 0 24 -2 18 -5z m110 0 c-7 -2 -21
-2 -30 0 -10 3 -4 5 12 5 17 0 24 -2 18 -5z m110 0 c-7 -2 -21 -2 -30 0 -10 3
-4 5 12 5 17 0 24 -2 18 -5z m110 0 c-7 -2 -21 -2 -30 0 -10 3 -4 5 12 5 17 0
24 -2 18 -5z m110 0 c-7 -2 -21 -2 -30 0 -10 3 -4 5 12 5 17 0 24 -2 18 -5z
m110 0 c-7 -2 -21 -2 -30 0 -10 3 -4 5 12 5 17 0 24 -2 18 -5z m110 0 c-7 -2
-21 -2 -30 0 -10 3 -4 5 12 5 17 0 24 -2 18 -5z m110 0 c-7 -2 -21 -2 -30 0
-10 3 -4 5 12 5 17 0 24 -2 18 -5z m110 0 c-7 -2 -21 -2 -30 0 -10 3 -4 5 12
5 17 0 24 -2 18 -5z m110 0 c-7 -2 -21 -2 -30 0 -10 3 -4 5 12 5 17 0 24 -2
18 -5z m110 0 c-7 -2 -21 -2 -30 0 -10 3 -4 5 12 5 17 0 24 -2 18 -5z m110 0
c-7 -2 -21 -2 -30 0 -10 3 -4 5 12 5 17 0 24 -2 18 -5z m-2330 -40 c-7 -2 -19
-2 -25 0 -7 3 -2 5 12 5 14 0 19 -2 13 -5z m108 -40 l24 -28 -30 25 c-16 14
-32 26 -34 28 -2 1 0 2 6 2 5 0 20 -12 34 -27z m127 -10 c-10 -2 -26 -2 -35 0
-10 3 -2 5 17 5 19 0 27 -2 18 -5z m-401 -9 c-3 -3 -12 -4 -19 -1 -8 3 -5 6 6
6 11 1 17 -2 13 -5z"/>
<path d="M872 1737 c-25 -14 -89 -89 -122 -142 -12 -20 -41 -44 -70 -58 -60
-30 -155 -116 -197 -177 -17 -25 -40 -54 -52 -64 -22 -20 -27 -36 -12 -36 4 0
28 17 52 38 46 40 110 81 187 120 26 13 76 51 111 84 82 77 137 112 220 139
36 12 91 32 122 45 30 12 86 28 122 34 37 7 67 16 67 21 0 14 -38 11 -43 -3
-4 -10 -6 -10 -6 -1 -1 18 -347 17 -379 0z"/>
<path d="M530 1680 c0 -33 4 -60 10 -60 5 0 9 27 9 60 -1 33 -5 60 -10 60 -5
0 -9 -27 -9 -60z"/>
<path d="M580 1695 c0 -35 3 -43 15 -39 10 4 15 20 15 45 0 28 -4 39 -15 39
-11 0 -15 -12 -15 -45z"/>
<path d="M640 1714 c0 -14 4 -23 10 -19 6 3 10 15 10 26 0 10 -4 19 -10 19 -5
0 -10 -12 -10 -26z"/>
<path d="M1821 1660 c54 -87 121 -153 183 -177 31 -13 71 -23 89 -23 18 0 49
-9 70 -20 20 -11 37 -17 37 -14 0 4 9 -5 20 -19 22 -28 62 -44 125 -51 l40 -5
-60 55 c-79 72 -158 118 -247 145 -93 27 -161 61 -218 108 -69 57 -73 57 -39
1z"/>
<path d="M2350 1410 c36 -32 46 -37 53 -25 11 20 27 10 27 -16 0 -10 7 -19 15
-19 8 0 15 9 15 20 0 11 7 20 15 20 9 0 15 -9 15 -24 0 -31 7 -35 70 -43 41
-5 51 -3 56 11 6 15 8 15 21 -4 18 -26 27 -25 40 3 10 21 11 21 20 -12 5 -19
23 -45 42 -59 l32 -26 -3 40 c-3 36 -7 41 -55 67 -28 15 -78 32 -110 38 -32 6
-92 21 -133 33 -41 13 -95 26 -120 30 l-45 6 45 -40z"/>
<path d="M2492 1297 c4 -26 28 -35 29 -10 0 10 5 4 12 -15 13 -37 141 -152
168 -152 13 0 18 13 21 63 3 39 1 65 -6 69 -7 5 -12 -2 -14 -17 -6 -42 -32
-30 -32 14 0 25 -5 41 -15 45 -11 4 -15 -1 -15 -19 0 -16 -6 -25 -15 -25 -9 0
-15 9 -15 25 0 16 -6 25 -16 25 -10 0 -14 -7 -12 -22 1 -13 -2 -23 -7 -23 -5
0 -8 10 -7 21 3 17 -5 23 -38 32 -39 10 -41 9 -38 -11z"/>
<path d="M50 1255 c-16 -20 -4 -76 16 -68 9 3 14 19 14 44 0 41 -9 49 -30 24z"/>
<path d="M380 1260 c-8 -5 -45 -16 -83 -26 -37 -9 -66 -19 -63 -21 8 -8 155
27 162 38 9 15 1 19 -16 9z"/>
<path d="M13 1233 c-14 -5 -18 -63 -4 -63 8 0 25 60 19 65 -2 1 -9 0 -15 -2z"/>
<path d="M2748 1147 c5 -110 22 -126 22 -20 0 52 -4 84 -12 91 -10 8 -12 -7
-10 -71z"/>
<path d="M2705 1100 c3 -5 8 -10 11 -10 2 0 4 5 4 10 0 6 -5 10 -11 10 -5 0
-7 -4 -4 -10z"/>
</g>
</svg>
